# xmcd
#
# Track frame offsets:
#	150
#	20950
#	39420
#	50418
#	63075
#	77773
#	90373
#	105155
#	119815
#	141523
#	158405
#	176240
#	188055
#	201905
#
# Disc length: 3019 seconds
#
# Revision: 0
# Processed by: cddbd v1.5.2PL0 Copyright (c) Steve Scherf et al.
# Submitted via: EasyCDDAExtractor 11.5.3.1
#
DISCID=ba0bc90e
DTITLE=Chico Buarque - A Musica de Chico Buarque
DYEAR=1900
DGENRE=
TTITLE0=Olhos Nos Olhos
TTITLE1=O Que Sera (A Flor Da Pele)
TTITLE2=Folhetim
TTITLE3=Atras Da Porta
TTITLE4=O Meu Amor
TTITLE5=Ate O Fim
TTITLE6=Sob Medida
TTITLE7=Pedaco De Mim
TTITLE8=Meu Guri
TTITLE9=Com Acucar, Com Afeto
TTITLE10=Olha, Maria
TTITLE11=Tem Mais Samba
TTITLE12=Pot-Pourri de Chico Buarque
TTITLE13=Partido-Alto (Ao Vivo)
EXTD=
EXTT0=
EXTT1=
EXTT2=
EXTT3=
EXTT4=
EXTT5=
EXTT6=
EXTT7=
EXTT8=
EXTT9=
EXTT10=
EXTT11=
EXTT12=
EXTT13=
PLAYORDER=
